<svg width="132" height="40" viewBox="0 0 132 40" fill="none" xmlns="http://www.w3.org/2000/svg">
<path fill-rule="evenodd" clip-rule="evenodd" d="M129.574 19.012C129.292 19.0128 129.013 18.9603 128.752 18.8577C128.491 18.755 128.255 18.6041 128.056 18.4138C127.856 18.2234 127.698 17.9973 127.591 17.7485C127.484 17.4997 127.429 17.2331 127.43 16.964C127.43 15.84 128.379 14.904 129.586 14.904C129.868 14.9032 130.147 14.9556 130.408 15.0583C130.669 15.161 130.905 15.3118 131.105 15.5022C131.304 15.6925 131.462 15.9186 131.569 16.1675C131.676 16.4163 131.731 16.6829 131.73 16.952C131.73 17.498 131.503 18.0217 131.098 18.4079C130.694 18.7942 130.146 19.0115 129.574 19.012ZM129.586 15.108C129.331 15.1061 129.078 15.1529 128.842 15.2457C128.606 15.3384 128.391 15.4752 128.211 15.6481C128.031 15.821 127.89 16.0265 127.794 16.2524C127.698 16.4784 127.651 16.7203 127.655 16.964C127.655 17.984 128.48 18.806 129.574 18.806C129.829 18.8076 130.082 18.7607 130.317 18.6679C130.553 18.5752 130.767 18.4386 130.947 18.2659C131.127 18.0933 131.269 17.8882 131.365 17.6626C131.461 17.437 131.509 17.1954 131.506 16.952C131.509 16.7098 131.463 16.4693 131.368 16.2447C131.273 16.0201 131.132 15.8158 130.953 15.644C130.774 15.4722 130.561 15.3362 130.326 15.2442C130.092 15.1521 129.84 15.1058 129.586 15.108ZM130.06 17.162L130.667 17.974H130.156L129.611 17.23H129.14V17.974H128.713V15.824H129.718C130.24 15.824 130.584 16.08 130.584 16.51C130.584 16.862 130.37 17.078 130.06 17.162ZM129.699 16.192H129.14V16.872H129.699C129.978 16.872 130.144 16.742 130.144 16.532C130.144 16.312 129.976 16.192 129.699 16.192ZM102.872 9.15199C102.292 9.15172 101.736 9.37124 101.326 9.76225C100.916 10.1533 100.686 10.6837 100.686 11.237C100.685 11.7902 100.915 12.3209 101.325 12.7123C101.735 13.1037 102.29 13.3237 102.87 13.324C103.45 13.324 104.006 13.1041 104.416 12.7127C104.826 12.3213 105.056 11.7905 105.056 11.237C105.056 10.6835 104.826 10.1526 104.416 9.76125C104.006 9.36987 103.45 9.14999 102.87 9.14999L102.872 9.15199ZM104.379 14.93H101.332C101.273 14.9305 101.216 14.9533 101.175 14.9934C101.133 15.0334 101.11 15.0876 101.11 15.144V27.836C101.11 27.956 101.208 28.05 101.332 28.05H104.381C104.44 28.05 104.497 28.0274 104.539 27.9873C104.581 27.9472 104.605 27.8927 104.605 27.836V15.144C104.605 15.0872 104.581 15.0328 104.539 14.9927C104.497 14.9525 104.44 14.93 104.381 14.93H104.379ZM111.155 14.942V14.542C111.155 13.358 111.63 12.83 112.697 12.83C113.331 12.83 113.841 12.95 114.415 13.134C114.448 13.1449 114.484 13.1479 114.519 13.1428C114.555 13.1376 114.588 13.1245 114.617 13.1045C114.645 13.0845 114.669 13.0583 114.685 13.0279C114.701 12.9975 114.709 12.9639 114.708 12.93V10.48C114.708 10.4342 114.692 10.3897 114.664 10.3529C114.635 10.3162 114.595 10.2893 114.549 10.276C113.727 10.0365 112.872 9.91909 112.014 9.92799C109.2 9.92799 107.712 11.442 107.712 14.304V14.92H106.247C106.188 14.92 106.132 14.9423 106.09 14.982C106.048 15.0217 106.024 15.0756 106.023 15.132V17.646C106.023 17.764 106.124 17.86 106.247 17.86H107.712V27.84C107.712 27.956 107.811 28.052 107.934 28.052H110.983C111.042 28.0515 111.098 28.0287 111.14 27.9886C111.181 27.9485 111.205 27.8944 111.205 27.838V17.858H114.05L118.41 27.838C117.916 28.884 117.43 29.094 116.766 29.094C116.227 29.094 115.661 28.94 115.083 28.638C115.056 28.6243 115.027 28.6158 114.997 28.6131C114.967 28.6103 114.936 28.6134 114.907 28.622C114.878 28.6315 114.851 28.6467 114.828 28.6667C114.806 28.6867 114.787 28.711 114.775 28.738L113.742 30.9C113.718 30.9488 113.714 31.0045 113.732 31.0558C113.75 31.1071 113.787 31.1501 113.836 31.176C114.915 31.734 115.89 31.972 117.092 31.972C119.343 31.972 120.587 30.972 121.683 28.278L126.971 15.234C126.985 15.2017 126.99 15.1666 126.987 15.1319C126.983 15.0972 126.97 15.0639 126.95 15.035C126.929 15.0061 126.901 14.9825 126.869 14.9663C126.837 14.9501 126.801 14.9417 126.764 14.942H123.592C123.546 14.9424 123.501 14.9565 123.463 14.9823C123.426 15.0081 123.397 15.0443 123.382 15.086L120.131 23.948L116.569 15.08C116.553 15.0396 116.525 15.0047 116.487 14.9801C116.45 14.9554 116.406 14.9421 116.361 14.942H111.155ZM99.4694 14.93H96.117V11.656C96.117 11.628 96.1112 11.6002 96.0999 11.5744C96.0886 11.5485 96.072 11.5251 96.0512 11.5054C96.0303 11.4857 96.0056 11.4701 95.9784 11.4595C95.9512 11.449 95.9221 11.4437 95.8928 11.444H92.8442C92.7855 11.4445 92.7293 11.467 92.6878 11.5067C92.6462 11.5463 92.6227 11.5999 92.6221 11.656V14.93H91.1555C91.1261 14.93 91.0971 14.9355 91.07 14.9463C91.0429 14.9571 91.0183 14.9729 90.9977 14.9928C90.977 15.0127 90.9607 15.0363 90.9497 15.0622C90.9386 15.0882 90.9331 15.116 90.9334 15.144V17.644C90.9334 17.762 91.0339 17.858 91.1555 17.858H92.6221V24.326C92.6221 26.942 93.984 28.266 96.6743 28.266C97.768 28.266 98.6732 28.052 99.528 27.59C99.5625 27.5714 99.5912 27.5444 99.6111 27.5117C99.631 27.479 99.6414 27.4418 99.6412 27.404V25.024C99.6417 24.9875 99.6324 24.9515 99.614 24.9194C99.5957 24.8874 99.569 24.8604 99.5366 24.8411C99.5041 24.8218 99.467 24.8108 99.4288 24.8092C99.3906 24.8076 99.3526 24.8155 99.3185 24.832C98.7318 25.114 98.164 25.244 97.5292 25.244C96.5507 25.244 96.1149 24.822 96.1149 23.872V17.858H99.4673C99.4968 17.8583 99.5261 17.8529 99.5534 17.8422C99.5807 17.8316 99.6055 17.8158 99.6264 17.7959C99.6473 17.776 99.6638 17.7523 99.675 17.7262C99.6861 17.7001 99.6917 17.6722 99.6915 17.644V15.144C99.6917 15.116 99.6862 15.0882 99.6752 15.0622C99.6641 15.0363 99.6478 15.0127 99.6272 14.9928C99.6065 14.9729 99.5819 14.9571 99.5548 14.9463C99.5278 14.9355 99.4987 14.93 99.4694 14.93ZM83.3968 14.664C79.2901 14.664 76.0697 17.684 76.0697 21.538C76.0697 25.352 79.2671 28.338 83.3465 28.338C87.4678 28.338 90.6966 25.33 90.6966 21.49C90.6966 17.662 87.4909 14.664 83.3968 14.664ZM83.3968 25.388C81.2115 25.388 79.5625 23.712 79.5625 21.488C79.5625 19.258 81.1549 17.64 83.3465 17.64C85.5465 17.64 87.2017 19.316 87.2017 21.54C87.2017 23.77 85.6031 25.388 83.3968 25.388ZM68.7008 14.664C66.9827 14.664 65.5747 15.31 64.4139 16.632V15.144C64.4139 15.0876 64.3906 15.0334 64.349 14.9934C64.3074 14.9533 64.2509 14.9305 64.1918 14.93H61.1433C61.0842 14.9305 61.0277 14.9533 60.9861 14.9934C60.9445 15.0334 60.9212 15.0876 60.9212 15.144V31.684C60.9212 31.8 61.0217 31.896 61.1433 31.896H64.1918C64.2506 31.8955 64.3067 31.873 64.3483 31.8333C64.3898 31.7937 64.4134 31.74 64.4139 31.684V26.464C65.5768 27.706 66.9848 28.314 68.7008 28.314C71.8897 28.314 75.1185 25.97 75.1185 21.49C75.1185 17.01 71.8918 14.664 68.7008 14.664ZM71.5754 21.49C71.5754 23.77 70.1025 25.364 67.9947 25.364C65.9099 25.364 64.3385 23.698 64.3385 21.49C64.3385 19.282 65.9099 17.616 67.9947 17.616C70.069 17.616 71.5775 19.244 71.5775 21.49H71.5754ZM53.9 17.87C50.4974 17.094 49.8918 16.55 49.8918 15.408C49.8918 14.328 50.9562 13.602 52.5402 13.602C54.0739 13.602 55.5972 14.152 57.1916 15.288C57.2154 15.3047 57.2424 15.3168 57.2711 15.3236C57.2998 15.3304 57.3296 15.3316 57.3588 15.3274C57.388 15.3231 57.416 15.3133 57.4413 15.2987C57.4665 15.284 57.4885 15.2648 57.5059 15.242L59.1695 13.004C59.2018 12.9598 59.2155 12.9055 59.2077 12.8521C59.1999 12.7988 59.1713 12.7501 59.1276 12.716C57.2294 11.26 55.0901 10.554 52.5905 10.554C48.9133 10.554 46.3467 12.658 46.3467 15.672C46.3467 18.902 48.5613 20.046 52.3894 20.928C55.6454 21.644 56.1964 22.244 56.1964 23.318C56.1964 24.506 55.0859 25.244 53.2945 25.244C51.3082 25.244 49.6886 24.604 47.8741 23.108C47.8287 23.0711 47.7702 23.0525 47.7107 23.056C47.6811 23.0582 47.6524 23.066 47.6261 23.0791C47.5998 23.0921 47.5765 23.1101 47.5577 23.132L45.693 25.248C45.6549 25.2902 45.636 25.345 45.6403 25.4005C45.6446 25.456 45.6719 25.5076 45.716 25.544C47.7706 27.3208 50.4467 28.3002 53.2191 28.29C57.1791 28.29 59.7394 26.224 59.7394 23.028C59.7394 20.326 58.0486 18.832 53.9 17.868V17.87ZM19.9194 0.609985C14.6904 0.609985 9.67549 2.5928 5.97799 6.12224C2.28048 9.65167 0.203247 14.4386 0.203247 19.43C0.203247 24.4214 2.28048 29.2083 5.97799 32.7377C9.67549 36.2672 14.6904 38.25 19.9194 38.25C25.1485 38.25 30.1634 36.2672 33.8609 32.7377C37.5584 29.2083 39.6356 24.4214 39.6356 19.43C39.6356 14.4386 37.5584 9.65167 33.8609 6.12224C30.1634 2.5928 25.1485 0.609985 19.9194 0.609985ZM28.9625 27.754C28.8785 27.8858 28.7681 28.0005 28.6376 28.0914C28.507 28.1824 28.359 28.2479 28.2019 28.2841C28.0448 28.3203 27.8818 28.3266 27.7221 28.3026C27.5625 28.2785 27.4094 28.2246 27.2716 28.144C22.6412 25.444 16.8164 24.834 9.95239 26.33C9.79514 26.3643 9.63236 26.3686 9.47334 26.3429C9.31432 26.3171 9.16218 26.2617 9.0256 26.1798C8.88901 26.0979 8.77067 25.9911 8.67732 25.8655C8.58397 25.74 8.51744 25.5981 8.48153 25.448C8.44563 25.2979 8.44104 25.1425 8.46805 24.9907C8.49505 24.8389 8.55311 24.6937 8.63891 24.5633C8.72471 24.4329 8.83657 24.32 8.96811 24.2309C9.09965 24.1418 9.24829 24.0783 9.40553 24.044C16.9149 22.404 23.3577 23.11 28.5539 26.142C29.1322 26.48 29.3145 27.202 28.9625 27.754ZM31.372 22.63C31.1588 22.9611 30.8167 23.198 30.4208 23.2887C30.0249 23.3795 29.6075 23.3166 29.26 23.114C23.9612 20.004 15.8819 19.104 9.61296 20.92C9.23154 21.0064 8.82998 20.9506 8.49011 20.7642C8.15024 20.5777 7.89766 20.2746 7.78384 19.9165C7.67002 19.5584 7.70354 19.1724 7.87756 18.8371C8.05158 18.5018 8.353 18.2425 8.72039 18.112C15.8819 16.038 24.7825 17.044 30.8671 20.612C31.0394 20.7128 31.1892 20.845 31.308 21.0011C31.4267 21.1572 31.5121 21.3341 31.5592 21.5217C31.6063 21.7093 31.6142 21.9039 31.5824 22.0944C31.5507 22.2849 31.4799 22.4676 31.3741 22.632L31.372 22.63ZM31.5836 17.294C25.2267 13.692 14.7421 13.36 8.67639 15.12C8.44361 15.1909 8.1984 15.2169 7.955 15.1965C7.7116 15.1761 7.47487 15.1098 7.25857 15.0013C7.04226 14.8929 6.8507 14.7445 6.69501 14.5647C6.53932 14.385 6.42261 14.1775 6.35167 13.9543C6.28072 13.7311 6.25695 13.4967 6.28174 13.2647C6.30653 13.0326 6.37938 12.8076 6.49607 12.6027C6.61275 12.3978 6.77094 12.2171 6.96143 12.071C7.15193 11.925 7.37094 11.8165 7.60572 11.752C14.5682 9.73199 26.1465 10.124 33.461 14.268C33.8816 14.5061 34.1859 14.8941 34.307 15.3464C34.428 15.7987 34.3558 16.2784 34.1063 16.68C33.8568 17.0815 33.4504 17.372 32.9765 17.4875C32.5026 17.603 32.0001 17.5341 31.5794 17.296" fill="white"/>
</svg>
